<svg xmlns="http://www.w3.org/2000/svg" viewBox="0 0 800 800" style="enable-background:new 0 0 800 800" xml:space="preserve"><path d="M686.4 800H113.6C50.9 800 0 749.1 0 686.4V113.6C0 50.9 50.9 0 113.6 0h572.7C749.1 0 800 50.9 800 113.6v572.7c0 62.8-50.9 113.7-113.6 113.7z" style="fill:#ccdadb"/><radialGradient id="a" cx="69.993" cy="64.129" r="1237.631" gradientTransform="matrix(.7061 .6456 -.6313 .722 78.487 -16.793)" gradientUnits="userSpaceOnUse"><stop offset=".244" style="stop-color:#e5aebc;stop-opacity:.5"/><stop offset=".496" style="stop-color:#d9e597;stop-opacity:.5"/><stop offset=".726" style="stop-color:#9ee0d4;stop-opacity:.5"/></radialGradient><path d="M686.9 800H113.1C50.6 800 0 749.4 0 686.9V113.1C0 50.6 50.6 0 113.1 0h573.8C749.4 0 800 50.6 800 113.1v573.8c0 62.5-50.6 113.1-113.1 113.1z" style="fill:url(#a)"/><g><path d="M772.6 295.3c-6-7.6-15.1-12-24.8-12H52.1c-9.7 0-18.8 4.4-24.8 12s-8.1 17.5-5.9 26.9c0 0 18.4 83.4 29.5 122.3 11.1 38.9 38.9 72.3 127.9 72.3h110.9c31.5 0 68.6-29.6 81.6-66.7 7.4-21 18.9-48.5 28.7-71 9.8 22.4 21.3 50 28.7 71 13 37.1 50 66.7 81.6 66.7h110.9c89 0 116.8-33.4 127.9-72.3 11.1-38.9 29.5-122.3 29.5-122.3 2.2-9.4 0-19.3-6-26.9zM154.5 433.7c-66.7-22.2-74.1-118.6-74.1-118.6H162l-7.5 118.6zm370.7 0C458.5 411.5 451 315.1 451 315.1h81.6l-7.4 118.6z" style="fill:#111827"/></g></svg>